<svg xmlns="http://www.w3.org/2000/svg" viewBox="0 0 512 512" role="img" aria-label="Winki barrel wave icon">
  <rect width="512" height="512" rx="108" fill="#071d2b"/>
  <path d="M83 346c47-138 141-205 282-200-75 14-121 55-138 123 38-52 93-78 166-78-28 21-46 49-54 83 27-18 54-20 82-7-18 27-45 50-80 68-75 38-161 42-258 11z" fill="#00a9b7"/>
  <path d="M99 335c54-111 133-165 238-162-64 25-104 70-121 136 40-50 90-75 150-75-31 23-51 50-60 82-55 36-124 42-207 19z" fill="#5ed5df" opacity=".92"/>
  <path d="M154 325c42-70 91-105 147-104-44 33-70 77-78 132-27-2-50-11-69-28z" fill="#0b5d78" opacity=".72"/>
  <path d="M195 146c71-43 159-31 233 27-58-8-102 0-132 25 47-8 87-2 119 20-43 4-75 19-96 44 25-9 52-8 80 4-27 21-57 32-90 33-44-1-80-18-108-52-20-29-22-62-6-101z" fill="#ffffff"/>
  <path d="M340 167c34 5 64 18 89 39-48-8-89-2-122 17 10-24 21-43 33-56z" fill="#d8fbff"/>
  <circle cx="419" cy="230" r="10" fill="#ffffff"/>
  <circle cx="444" cy="264" r="7" fill="#ffffff"/>
  <circle cx="411" cy="295" r="6" fill="#ffffff"/>
</svg>
